<svg width="101" height="138" viewBox="0 0 101 138" fill="none" xmlns="http://www.w3.org/2000/svg">
<path d="M1.12314 61.6078C3.42262 29.4511 27.8683 3.79392 58.4884 1.2758C60.9224 1.07563 62.9463 3.076 62.9463 5.57275L62.9463 61.5728C62.9463 64.058 60.9316 66.0728 58.4463 66.0728L5.44629 66.0728C2.95131 66.0728 0.948526 64.0496 1.12314 61.6078Z" fill="#CFCFCF" stroke="none"/>
<rect x="68.9463" y="1.07275" width="30.5" height="65" rx="4.5" fill="#DDDDDD" stroke="none"/>
<path d="M99.7694 76.5377C97.47 108.694 73.0243 134.352 42.4041 136.87C39.9702 137.07 37.9463 135.07 37.9463 132.573L37.9463 76.5728C37.9463 74.0875 39.961 72.0728 42.4463 72.0728L95.4463 72.0728C97.9413 72.0728 99.9441 74.0959 99.7694 76.5377Z" fill="#CFCFCF" stroke="none"/>
<rect x="31.9463" y="137.073" width="30.5" height="65" rx="4.5" transform="rotate(-180 31.9463 137.073)" fill="#DDDDDD" stroke="none"/>
</svg>
