<svg width="64" height="87" viewBox="0 0 64 87" fill="none" xmlns="http://www.w3.org/2000/svg">
<path d="M36.8879 0.107531C17.1759 1.58347 1.43896 18.112 0.0933273 38.7809C-0.00986052 40.3659 1.28758 41.6576 2.8759 41.6576L36.888 41.6576C38.4763 41.6576 39.7639 40.37 39.7639 38.7817L39.7639 2.87615C39.7639 1.28783 38.4718 -0.0110626 36.8879 0.107531Z" fill="#E36B1D"/>
<rect x="42.9199" width="19.8819" height="41.6574" rx="2.8759" fill="#9BD2BF"/>
<path d="M26.2296 86.3632C45.9416 84.8872 61.6786 68.3587 63.0242 47.6898C63.1274 46.1048 61.83 44.8131 60.2417 44.8131L26.2296 44.8131C24.6413 44.8131 23.3537 46.1007 23.3537 47.689L23.3537 83.5946C23.3537 85.1829 24.6458 86.4818 26.2296 86.3632Z" fill="#9EC05F"/>
<rect x="20.198" y="86.4705" width="19.8819" height="41.6574" rx="2.8759" transform="rotate(-180 20.198 86.4705)" fill="#EFBE75"/>
</svg>
